<?xml version="1.0" standalone="no"?>
<!DOCTYPE svg PUBLIC "-//W3C//DTD SVG 20010904//EN"
 "http://www.w3.org/TR/2001/REC-SVG-20010904/DTD/svg10.dtd">
<svg version="1.0" xmlns="http://www.w3.org/2000/svg"
 width="676.000000pt" height="1280.000000pt" viewBox="0 0 676.000000 1280.000000"
 preserveAspectRatio="xMidYMid meet">
<metadata>
Created by potrace 1.15, written by Peter Selinger 2001-2017
</metadata>
<g transform="translate(0.000000,1280.000000) scale(0.100000,-0.100000)"
fill="#000000" stroke="none">
<path d="M2890 11981 l0 -820 -42 -5 c-24 -3 -88 -11 -143 -17 -236 -25 -537
-87 -773 -158 -869 -262 -1477 -771 -1751 -1464 -125 -316 -179 -650 -168
-1046 8 -299 46 -502 137 -735 248 -634 824 -1123 1658 -1410 267 -91 459
-135 642 -146 85 -5 219 -15 298 -21 l142 -12 0 -1507 0 -1507 -27 4 c-16 1
-86 9 -158 18 -71 8 -208 20 -304 25 -616 37 -1191 200 -1736 493 -200 108
-441 265 -526 344 -26 24 -28 24 -58 9 -76 -40 -85 -122 -76 -754 l7 -492 86
-65 c367 -275 1068 -489 2032 -619 182 -25 501 -58 672 -71 l88 -7 2 -986 3
-987 335 -22 c184 -12 359 -22 387 -22 l53 -1 2 1012 3 1013 40 3 c22 1 123
14 225 28 533 73 998 212 1415 423 311 158 520 305 736 521 210 208 320 361
440 605 156 321 224 628 223 1020 0 274 -22 440 -89 672 -219 759 -900 1368
-1935 1731 -279 98 -631 193 -912 248 l-148 28 0 1403 0 1403 24 0 c119 0 535
-58 753 -105 527 -114 1147 -354 1591 -616 l52 -31 0 69 c0 38 7 272 15 519 8
247 16 537 18 644 l2 195 -180 51 c-595 171 -1360 298 -1975 329 -63 3 -157 8
-207 11 l-93 6 0 809 0 809 -390 0 -390 0 0 -819z m-3 -4547 c-7 -8 -290 69
-415 112 -722 247 -1102 662 -1102 1204 0 622 525 1112 1381 1289 l134 27 3
-1314 c1 -724 1 -1317 -1 -1318z m1033 -1481 c575 -164 1002 -416 1213 -714
62 -88 132 -236 159 -340 33 -122 32 -396 -1 -549 -64 -302 -179 -526 -367
-720 -52 -54 -134 -126 -182 -160 -106 -75 -310 -176 -452 -223 -171 -57 -471
-117 -582 -117 l-43 0 3 1444 2 1444 63 -14 c34 -8 118 -31 187 -51z"/>
</g>
</svg>
